<svg xmlns="http://www.w3.org/2000/svg" viewBox="0 0 512 512">
  <rect width="512" height="512" rx="128" fill="#1e1b4b"/>
  <path d="M384 128h-96V32H160c-17.67 0-32 14.33-32 32v384c0 17.67 14.33 32 32 32h192c17.67 0 32-14.33 32-32V128zm-96 224h-32v32c0 8.84-7.16 16-16 16h-16c-8.84 0-16-7.16-16-16v-32h-32c-8.84 0-16-7.16-16-16v-16c0-8.84 7.16-16 16-16h32v-32c0-8.84 7.16-16 16-16h16c8.84 0 16 7.16 16 16v32h32c8.84 0 16 7.16 16 16v16c0 8.84-7.16 16-16 16z" fill="#ffffff"/>
  <path d="M288 32l96 96h-96V32z" fill="#ffffff" opacity="0.8"/>
</svg>
